<svg width="56" height="56" viewBox="0 0 56 56" fill="none" xmlns="http://www.w3.org/2000/svg">
<rect y="-0.000488281" width="56" height="56" rx="12" fill="#0075FF"/>
<path d="M36.0733 15.345C35.84 14.6567 35.1866 14.1667 34.4166 14.1667H21.5833C20.8133 14.1667 20.1716 14.6567 19.9266 15.345L17.5 22.3333V31.6667C17.5 32.3083 18.025 32.8333 18.6666 32.8333H19.8333C20.475 32.8333 21 32.3083 21 31.6667V30.5H35V31.6667C35 32.3083 35.525 32.8333 36.1666 32.8333H37.3333C37.975 32.8333 38.5 32.3083 38.5 31.6667V22.3333L36.0733 15.345ZM21.9916 16.5H33.9966L35.2566 20.1283H20.7316L21.9916 16.5ZM36.1666 28.1667H19.8333V22.3333H36.1666V28.1667Z" fill="white"/>
<path d="M22.7499 27C23.7164 27 24.4999 26.2165 24.4999 25.25C24.4999 24.2835 23.7164 23.5 22.7499 23.5C21.7834 23.5 20.9999 24.2835 20.9999 25.25C20.9999 26.2165 21.7834 27 22.7499 27Z" fill="white"/>
<path d="M33.25 27C34.2165 27 35 26.2165 35 25.25C35 24.2835 34.2165 23.5 33.25 23.5C32.2835 23.5 31.5 24.2835 31.5 25.25C31.5 26.2165 32.2835 27 33.25 27Z" fill="white"/>
<path d="M22.1667 36.3333H26.8333V34L33.8333 37.5H29.1667V39.8333L22.1667 36.3333Z" fill="white"/>
</svg>
