<svg viewBox="0 0 21 20" fill="none" xmlns="http://www.w3.org/2000/svg">
<path d="M4.04167 0.5H16.9583C18.9167 0.5 20.5 2.08333 20.5 4.04167V16.4583C20.5 18.4167 18.9167 20 16.9583 20H4.04167C2.08333 20 0.5 18.4167 0.5 16.4583V4.04167C0.5 2.08333 2.08333 0.5 4.04167 0.5Z" fill="#470137"/>
<path d="M11.0166 5.625L8.51665 9.75L11.1833 14.125C11.2 14.1583 11.2083 14.1917 11.2 14.225C11.1916 14.2583 11.1583 14.2333 11.1083 14.2417H9.19998C9.06665 14.2417 8.97498 14.2333 8.91665 14.15C8.74165 13.8 8.55831 13.4583 8.38331 13.1083C8.20831 12.7667 8.01665 12.4167 7.81665 12.0583C7.61665 11.7 7.41665 11.3417 7.21665 10.975H7.19998C7.02498 11.3333 6.83331 11.6917 6.64165 12.05C6.44998 12.4083 6.25831 12.7667 6.07498 13.1167C5.88331 13.4667 5.69165 13.825 5.49998 14.1667C5.46665 14.25 5.39998 14.2583 5.30831 14.2583H3.47498C3.44165 14.2583 3.41665 14.275 3.41665 14.2333C3.40831 14.2 3.41665 14.1667 3.43331 14.1417L6.02498 9.89166L3.49998 5.61666C3.47498 5.58333 3.46665 5.55 3.48331 5.53333C3.49998 5.50833 3.53331 5.5 3.56665 5.5H5.45831C5.49998 5.5 5.54165 5.50833 5.57498 5.51666C5.60831 5.53333 5.63331 5.55833 5.65831 5.59166C5.81665 5.95 5.99998 6.30833 6.19165 6.66666C6.39165 7.025 6.58331 7.375 6.79165 7.725C6.99165 8.075 7.17498 8.425 7.34998 8.78333H7.36665C7.54165 8.41666 7.72498 8.05833 7.90831 7.70833C8.09165 7.35833 8.28331 7.00833 8.47498 6.65833C8.66665 6.30833 8.84998 5.95 9.03331 5.60833C9.04165 5.575 9.05831 5.54166 9.08331 5.525C9.11665 5.50833 9.14998 5.5 9.19165 5.50833H10.95C10.9916 5.5 11.0333 5.525 11.0416 5.56666C11.05 5.575 11.0333 5.60833 11.0166 5.625Z" fill="#FF61F6"/>
<path d="M14.8667 14.4167C14.25 14.425 13.6334 14.3 13.075 14.0417C12.55 13.8 12.1167 13.4 11.8167 12.9083C11.5084 12.4 11.3584 11.7667 11.3584 11.0083C11.35 10.3917 11.5084 9.78335 11.8167 9.25001C12.1334 8.70835 12.5917 8.25835 13.1417 7.95835C13.725 7.63335 14.425 7.47501 15.25 7.47501C15.2917 7.47501 15.35 7.47501 15.425 7.48335C15.5 7.49168 15.5834 7.49168 15.6834 7.50001V4.86668C15.6834 4.80835 15.7084 4.77501 15.7667 4.77501H17.4584C17.5 4.76668 17.5334 4.80001 17.5417 4.83335C17.5417 4.84168 17.5417 4.85001 17.5417 4.85001V12.7833C17.5417 12.9333 17.55 13.1 17.5584 13.2833C17.575 13.4583 17.5834 13.625 17.5917 13.7667C17.5917 13.825 17.5667 13.875 17.5084 13.9C17.075 14.0833 16.6167 14.2167 16.15 14.3C15.725 14.375 15.3 14.4167 14.8667 14.4167ZM15.6834 12.75V9.08335C15.6084 9.06668 15.5334 9.05001 15.4584 9.04168C15.3667 9.03335 15.275 9.02501 15.1834 9.02501C14.8584 9.02501 14.5334 9.09168 14.2417 9.24168C13.9584 9.38335 13.7167 9.59168 13.5334 9.85835C13.35 10.125 13.2584 10.4833 13.2584 10.9167C13.25 11.2083 13.3 11.5 13.4 11.775C13.4834 12 13.6084 12.2 13.775 12.3667C13.9334 12.5167 14.125 12.6333 14.3417 12.7C14.5667 12.775 14.8 12.8083 15.0334 12.8083C15.1584 12.8083 15.275 12.8 15.3834 12.7917C15.4917 12.8 15.5834 12.7833 15.6834 12.75Z" fill="#FF61F6"/>
</svg>
