<svg width="25" height="28" viewBox="0 0 25 28" fill="none" xmlns="http://www.w3.org/2000/svg">
<path d="M18.1384 6.78462C15.6972 6.78462 14.6654 7.94954 12.9653 7.94954C11.2221 7.94954 9.89253 6.7931 7.77702 6.7931C5.70632 6.7931 3.49818 8.05732 2.09591 10.211C0.126926 13.248 0.461145 18.9679 3.65015 23.8407C4.79085 25.585 6.31421 27.5413 8.31226 27.5625H8.34858C10.0851 27.5625 10.6009 26.4254 12.9907 26.4121H13.027C15.3811 26.4121 15.8534 27.5558 17.5826 27.5558H17.6189C19.617 27.5346 21.2221 25.3671 22.3628 23.6294C23.1838 22.3797 23.4889 21.7524 24.1186 20.3386C19.5056 18.5876 18.7645 12.048 23.3267 9.54072C21.9341 7.79697 19.9772 6.78704 18.1324 6.78704L18.1384 6.78462Z" fill="white"/>
<path d="M17.6011 0.439026C16.148 0.537717 14.4526 1.46287 13.4597 2.67078C12.5587 3.76547 11.8176 5.38934 12.1083 6.96416H12.2245C13.7721 6.96416 15.356 6.03234 16.2812 4.83836C17.1724 3.7019 17.8481 2.09135 17.6011 0.439026Z" fill="white"/>
</svg>
