<svg width="28" height="28" viewBox="0 0 28 28" fill="none" xmlns="http://www.w3.org/2000/svg">
<path d="M22.0733 2.34501C21.84 1.65668 21.1866 1.16668 20.4166 1.16668H7.58331C6.81331 1.16668 6.17164 1.65668 5.92664 2.34501L3.49998 9.33335V18.6667C3.49998 19.3083 4.02498 19.8333 4.66664 19.8333H5.83331C6.47498 19.8333 6.99998 19.3083 6.99998 18.6667V17.5H21V18.6667C21 19.3083 21.525 19.8333 22.1666 19.8333H23.3333C23.975 19.8333 24.5 19.3083 24.5 18.6667V9.33335L22.0733 2.34501ZM7.99164 3.50001H19.9966L21.2566 7.12835H6.73164L7.99164 3.50001ZM22.1666 15.1667H5.83331V9.33335H22.1666V15.1667Z" fill="white"/>
<path d="M8.74993 14C9.71643 14 10.4999 13.2165 10.4999 12.25C10.4999 11.2835 9.71643 10.5 8.74993 10.5C7.78343 10.5 6.99993 11.2835 6.99993 12.25C6.99993 13.2165 7.78343 14 8.74993 14Z" fill="white"/>
<path d="M19.25 14C20.2165 14 21 13.2165 21 12.25C21 11.2835 20.2165 10.5 19.25 10.5C18.2835 10.5 17.5 11.2835 17.5 12.25C17.5 13.2165 18.2835 14 19.25 14Z" fill="white"/>
<path d="M8.16667 23.3333H12.8333V21L19.8333 24.5H15.1667V26.8333L8.16667 23.3333Z" fill="white"/>
</svg>
