<svg width="13" height="13" viewBox="0 0 13 13" fill="none" xmlns="http://www.w3.org/2000/svg">
<path d="M0.406189 5.09318H0.0311891V5.46818H0.406189V5.09318ZM0.874939 5.09318V5.46818H1.24994V5.09318H0.874939ZM12.1249 5.09318H11.7499V5.46818H12.1249V5.09318ZM12.5937 5.09318V5.46818H12.9687V5.09318H12.5937ZM3.12485 0.405609C3.12485 0.198502 2.95695 0.0306093 2.74985 0.0306093C2.54274 0.0306093 2.37485 0.198502 2.37485 0.405609H3.12485ZM2.37485 1.34311C2.37485 1.55022 2.54274 1.71811 2.74985 1.71811C2.95695 1.71811 3.12485 1.55022 3.12485 1.34311H2.37485ZM10.6249 0.405609C10.6249 0.198502 10.457 0.0306093 10.2499 0.0306093C10.0428 0.0306093 9.87491 0.198502 9.87491 0.405609H10.6249ZM9.87491 1.34311C9.87491 1.55022 10.0428 1.71811 10.2499 1.71811C10.457 1.71811 10.6249 1.55022 10.6249 1.34311H9.87491ZM1.81244 1.71818H11.1874V0.968178H1.81244V1.71818ZM11.1874 1.71818C11.757 1.71818 12.2187 2.17988 12.2187 2.74943H12.9687C12.9687 1.76567 12.1712 0.968178 11.1874 0.968178V1.71818ZM12.2187 2.74943V11.1869H12.9687V2.74943H12.2187ZM12.2187 11.1869C12.2187 11.7565 11.757 12.2182 11.1874 12.2182V12.9682C12.1712 12.9682 12.9687 12.1707 12.9687 11.1869H12.2187ZM11.1874 12.2182H1.81244V12.9682H11.1874V12.2182ZM1.81244 12.2182C1.2429 12.2182 0.781189 11.7565 0.781189 11.1869H0.0311891C0.0311891 12.1707 0.828682 12.9682 1.81244 12.9682V12.2182ZM0.781189 11.1869V2.74943H0.0311891V11.1869H0.781189ZM0.781189 2.74943C0.781189 2.17988 1.2429 1.71818 1.81244 1.71818V0.968178C0.828682 0.968178 0.0311891 1.76567 0.0311891 2.74943H0.781189ZM10.6548 0.968178H2.34506V1.71818H10.6548V0.968178ZM2.34506 0.968178C1.06351 0.968178 0.0311891 2.02481 0.0311891 3.31193H0.781189C0.781189 2.42815 1.48851 1.71818 2.34506 1.71818V0.968178ZM0.0311891 3.31193V5.09318H0.781189V3.31193H0.0311891ZM0.406189 5.46818H0.874939V4.71818H0.406189V5.46818ZM1.24994 5.09318C1.24994 4.98076 1.30992 4.83696 1.43307 4.71381C1.55622 4.59066 1.70003 4.53068 1.81244 4.53068V3.78068C1.4561 3.78068 1.13115 3.95507 0.902743 4.18348C0.674332 4.41189 0.499939 4.73684 0.499939 5.09318H1.24994ZM1.81244 4.53068H11.1874V3.78068H1.81244V4.53068ZM11.1874 4.53068C11.2998 4.53068 11.4437 4.59066 11.5668 4.71381C11.69 4.83696 11.7499 4.98076 11.7499 5.09318H12.4999C12.4999 4.73684 12.3255 4.41189 12.0971 4.18348C11.8687 3.95507 11.5438 3.78068 11.1874 3.78068V4.53068ZM12.1249 5.46818H12.5937V4.71818H12.1249V5.46818ZM12.9687 5.09318V3.31193H12.2187V5.09318H12.9687ZM12.9687 3.31193C12.9687 2.02481 11.9364 0.968178 10.6548 0.968178V1.71818C11.5114 1.71818 12.2187 2.42815 12.2187 3.31193H12.9687ZM7.99989 5.79628C7.99989 5.9775 7.85299 6.1244 7.67177 6.1244V6.8744C8.2672 6.8744 8.74989 6.39171 8.74989 5.79628H7.99989ZM7.67177 6.1244C7.49055 6.1244 7.34364 5.9775 7.34364 5.79628H6.59364C6.59364 6.39171 7.07634 6.8744 7.67177 6.8744V6.1244ZM7.34364 5.79628C7.34364 5.61506 7.49055 5.46815 7.67177 5.46815V4.71815C7.07634 4.71815 6.59364 5.20085 6.59364 5.79628H7.34364ZM7.67177 5.46815C7.85299 5.46815 7.99989 5.61506 7.99989 5.79628H8.74989C8.74989 5.20085 8.2672 4.71815 7.67177 4.71815V5.46815ZM10.3437 5.79628C10.3437 5.9775 10.1968 6.1244 10.0155 6.1244V6.8744C10.611 6.8744 11.0937 6.39171 11.0937 5.79628H10.3437ZM10.0155 6.1244C9.83431 6.1244 9.68741 5.9775 9.68741 5.79628H8.93741C8.93741 6.39171 9.4201 6.8744 10.0155 6.8744V6.1244ZM9.68741 5.79628C9.68741 5.61506 9.83431 5.46815 10.0155 5.46815V4.71815C9.4201 4.71815 8.93741 5.20085 8.93741 5.79628H9.68741ZM10.0155 5.46815C10.1968 5.46815 10.3437 5.61506 10.3437 5.79628H11.0937C11.0937 5.20085 10.611 4.71815 10.0155 4.71815V5.46815ZM7.99989 8.13959C7.99989 8.32081 7.85299 8.46772 7.67177 8.46772V9.21772C8.2672 9.21772 8.74989 8.73503 8.74989 8.13959H7.99989ZM7.67177 8.46772C7.49055 8.46772 7.34364 8.32081 7.34364 8.13959H6.59364C6.59364 8.73503 7.07634 9.21772 7.67177 9.21772V8.46772ZM7.34364 8.13959C7.34364 7.95838 7.49055 7.81147 7.67177 7.81147V7.06147C7.07634 7.06147 6.59364 7.54416 6.59364 8.13959H7.34364ZM7.67177 7.81147C7.85299 7.81147 7.99989 7.95838 7.99989 8.13959H8.74989C8.74989 7.54416 8.2672 7.06147 7.67177 7.06147V7.81147ZM10.3437 8.13959C10.3437 8.32081 10.1968 8.46772 10.0155 8.46772V9.21772C10.611 9.21772 11.0937 8.73503 11.0937 8.13959H10.3437ZM10.0155 8.46772C9.83431 8.46772 9.68741 8.32081 9.68741 8.13959H8.93741C8.93741 8.73503 9.4201 9.21772 10.0155 9.21772V8.46772ZM9.68741 8.13959C9.68741 7.95838 9.83431 7.81147 10.0155 7.81147V7.06147C9.4201 7.06147 8.93741 7.54416 8.93741 8.13959H9.68741ZM10.0155 7.81147C10.1968 7.81147 10.3437 7.95838 10.3437 8.13959H11.0937C11.0937 7.54416 10.611 7.06147 10.0155 7.06147V7.81147ZM3.31242 8.13959C3.31242 8.32081 3.16552 8.46772 2.9843 8.46772V9.21772C3.57973 9.21772 4.06242 8.73503 4.06242 8.13959H3.31242ZM2.9843 8.46772C2.80308 8.46772 2.65617 8.32081 2.65617 8.13959H1.90617C1.90617 8.73503 2.38887 9.21772 2.9843 9.21772V8.46772ZM2.65617 8.13959C2.65617 7.95838 2.80308 7.81147 2.9843 7.81147V7.06147C2.38887 7.06147 1.90617 7.54416 1.90617 8.13959H2.65617ZM2.9843 7.81147C3.16552 7.81147 3.31242 7.95838 3.31242 8.13959H4.06242C4.06242 7.54416 3.57973 7.06147 2.9843 7.06147V7.81147ZM5.65616 8.13959C5.65616 8.32081 5.50925 8.46772 5.32803 8.46772V9.21772C5.92346 9.21772 6.40616 8.73503 6.40616 8.13959H5.65616ZM5.32803 8.46772C5.14681 8.46772 4.99991 8.32081 4.99991 8.13959H4.24991C4.24991 8.73503 4.7326 9.21772 5.32803 9.21772V8.46772ZM4.99991 8.13959C4.99991 7.95838 5.14681 7.81147 5.32803 7.81147V7.06147C4.7326 7.06147 4.24991 7.54416 4.24991 8.13959H4.99991ZM5.32803 7.81147C5.50925 7.81147 5.65616 7.95838 5.65616 8.13959H6.40616C6.40616 7.54416 5.92346 7.06147 5.32803 7.06147V7.81147ZM3.31242 10.4838C3.31242 10.665 3.16552 10.8119 2.9843 10.8119V11.5619C3.57973 11.5619 4.06242 11.0793 4.06242 10.4838H3.31242ZM2.9843 10.8119C2.80308 10.8119 2.65617 10.665 2.65617 10.4838H1.90617C1.90617 11.0793 2.38887 11.5619 2.9843 11.5619V10.8119ZM2.65617 10.4838C2.65617 10.3026 2.80308 10.1557 2.9843 10.1557V9.4057C2.38887 9.4057 1.90617 9.88839 1.90617 10.4838H2.65617ZM2.9843 10.1557C3.16552 10.1557 3.31242 10.3026 3.31242 10.4838H4.06242C4.06242 9.88839 3.57973 9.4057 2.9843 9.4057V10.1557ZM5.65616 10.4838C5.65616 10.665 5.50925 10.8119 5.32803 10.8119V11.5619C5.92346 11.5619 6.40616 11.0793 6.40616 10.4838H5.65616ZM5.32803 10.8119C5.14681 10.8119 4.99991 10.665 4.99991 10.4838H4.24991C4.24991 11.0793 4.7326 11.5619 5.32803 11.5619V10.8119ZM4.99991 10.4838C4.99991 10.3026 5.14681 10.1557 5.32803 10.1557V9.4057C4.7326 9.4057 4.24991 9.88839 4.24991 10.4838H4.99991ZM5.32803 10.1557C5.50925 10.1557 5.65616 10.3026 5.65616 10.4838H6.40616C6.40616 9.88839 5.92346 9.4057 5.32803 9.4057V10.1557ZM7.99989 10.4838C7.99989 10.665 7.85299 10.8119 7.67177 10.8119V11.5619C8.2672 11.5619 8.74989 11.0793 8.74989 10.4838H7.99989ZM7.67177 10.8119C7.49055 10.8119 7.34364 10.665 7.34364 10.4838H6.59364C6.59364 11.0793 7.07634 11.5619 7.67177 11.5619V10.8119ZM7.34364 10.4838C7.34364 10.3026 7.49055 10.1557 7.67177 10.1557V9.4057C7.07634 9.4057 6.59364 9.88839 6.59364 10.4838H7.34364ZM7.67177 10.1557C7.85299 10.1557 7.99989 10.3026 7.99989 10.4838H8.74989C8.74989 9.88839 8.2672 9.4057 7.67177 9.4057V10.1557ZM2.37485 0.405609V1.34311H3.12485V0.405609H2.37485ZM9.87491 0.405609V1.34311H10.6249V0.405609H9.87491Z" fill="#2D3748"/>
</svg>
