<svg viewBox="0 0 14 11" fill="none" xmlns="http://www.w3.org/2000/svg">
<path d="M0 9.24954C0 9.71367 0.184374 10.1588 0.512563 10.487C0.840751 10.8152 1.28587 10.9995 1.75 10.9995H12.25C12.7141 10.9995 13.1592 10.8152 13.4874 10.487C13.8156 10.1588 14 9.71367 14 9.24954V4.43704H0V9.24954ZM2.0625 6.87454C2.0625 6.6259 2.16127 6.38745 2.33709 6.21163C2.5129 6.03581 2.75136 5.93704 3 5.93704H4.5C4.74864 5.93704 4.9871 6.03581 5.16291 6.21163C5.33873 6.38745 5.4375 6.6259 5.4375 6.87454V7.49954C5.4375 7.74818 5.33873 7.98664 5.16291 8.16245C4.9871 8.33827 4.74864 8.43704 4.5 8.43704H3C2.75136 8.43704 2.5129 8.33827 2.33709 8.16245C2.16127 7.98664 2.0625 7.74818 2.0625 7.49954V6.87454Z" fill="#F6AD55"/>
<path d="M12.25 -0.000854492H1.75C1.28587 -0.000854492 0.840751 0.18352 0.512563 0.511709C0.184374 0.839897 0 1.28502 0 1.74915V2.56164H14V1.74915C14 1.28502 13.8156 0.839897 13.4874 0.511709C13.1592 0.18352 12.7141 -0.000854492 12.25 -0.000854492Z" fill="#F6AD55"/>
</svg>
