<svg viewBox="0 0 20 17" fill="none" xmlns="http://www.w3.org/2000/svg">
<path d="M6.48438 16.9373C7.26103 16.9373 7.89062 16.3077 7.89062 15.531C7.89062 14.7544 7.26103 14.1248 6.48438 14.1248C5.70772 14.1248 5.07812 14.7544 5.07812 15.531C5.07812 16.3077 5.70772 16.9373 6.48438 16.9373Z" fill="currentColor"/>
<path d="M16.3281 16.9373C17.1048 16.9373 17.7344 16.3077 17.7344 15.531C17.7344 14.7544 17.1048 14.1248 16.3281 14.1248C15.5515 14.1248 14.9219 14.7544 14.9219 15.531C14.9219 16.3077 15.5515 16.9373 16.3281 16.9373Z" fill="currentColor"/>
<path d="M18.8242 2.55784C18.7254 2.43701 18.601 2.33969 18.4599 2.27295C18.3188 2.20621 18.1647 2.17173 18.0086 2.172H4.63384L4.36445 0.643579C4.33573 0.480774 4.25056 0.333297 4.1239 0.227051C3.99724 0.120806 3.83719 0.0625873 3.67187 0.0626221H0.859375C0.672894 0.0626221 0.494052 0.136701 0.36219 0.268563C0.230329 0.400424 0.15625 0.579267 0.15625 0.765747C0.15625 0.952227 0.230329 1.13107 0.36219 1.26293C0.494052 1.39479 0.672894 1.46887 0.859375 1.46887H3.08213L5.08867 12.841C5.11739 13.0038 5.20257 13.1513 5.32923 13.2576C5.45588 13.3638 5.61593 13.422 5.78125 13.422H17.0312C17.2177 13.422 17.3966 13.3479 17.5284 13.2161C17.6603 13.0842 17.7344 12.9053 17.7344 12.7189C17.7344 12.5324 17.6603 12.3535 17.5284 12.2217C17.3966 12.0898 17.2177 12.0157 17.0312 12.0157H6.37099L6.12314 10.6095H16.743C16.9868 10.6092 17.223 10.5246 17.4117 10.3702C17.6004 10.2157 17.7299 10.0008 17.7783 9.76179L19.0439 3.43367C19.0744 3.28052 19.0705 3.12251 19.0325 2.97105C18.9945 2.81959 18.9234 2.67845 18.8242 2.55784Z" fill="currentColor"/>
</svg>
