<svg width="13" height="13" viewBox="0 0 13 13" fill="none" xmlns="http://www.w3.org/2000/svg">
<path d="M6.5 0.406036C3.13994 0.406036 0.40625 3.13973 0.40625 6.49979C0.40625 9.85984 3.13994 12.5935 6.5 12.5935C9.86006 12.5935 12.5937 9.85984 12.5937 6.49979C12.5937 3.13973 9.86006 0.406036 6.5 0.406036ZM9.67139 4.4575L5.73389 9.145C5.69069 9.19645 5.63695 9.23801 5.57629 9.26687C5.51564 9.29573 5.44949 9.31122 5.38232 9.31229H5.37441C5.30871 9.31226 5.24375 9.29843 5.18374 9.27168C5.12373 9.24493 5.07001 9.20586 5.02607 9.15701L3.33857 7.28201C3.29572 7.23656 3.26238 7.18299 3.24052 7.12447C3.21866 7.06595 3.20872 7.00364 3.21128 6.94122C3.21384 6.8788 3.22886 6.81753 3.25544 6.76099C3.28202 6.70446 3.31964 6.6538 3.36608 6.61201C3.41251 6.57022 3.46684 6.53814 3.52585 6.51764C3.58487 6.49715 3.64738 6.48866 3.70973 6.49267C3.77207 6.49668 3.83298 6.51311 3.88889 6.541C3.94479 6.56888 3.99455 6.60766 4.03525 6.65506L5.36211 8.12928L8.95361 3.85457C9.03417 3.76143 9.14815 3.70373 9.27091 3.69395C9.39367 3.68417 9.51535 3.72309 9.60964 3.8023C9.70394 3.8815 9.76327 3.99464 9.77483 4.11724C9.78638 4.23985 9.74922 4.36207 9.67139 4.4575Z" fill="#01B574"/>
</svg>
