<svg width="15" height="16" viewBox="0 0 15 16" fill="none" xmlns="http://www.w3.org/2000/svg">
<path d="M3.75 12.375C3.75 13.0625 4.3125 13.625 5 13.625H10C10.6875 13.625 11.25 13.0625 11.25 12.375V6.12503C11.25 5.43753 10.6875 4.87503 10 4.87503H5C4.3125 4.87503 3.75 5.43753 3.75 6.12503V12.375ZM11.25 3.00003H9.6875L9.24375 2.55628C9.13125 2.44378 8.96875 2.37503 8.80625 2.37503H6.19375C6.03125 2.37503 5.86875 2.44378 5.75625 2.55628L5.3125 3.00003H3.75C3.40625 3.00003 3.125 3.28128 3.125 3.62503C3.125 3.96878 3.40625 4.25003 3.75 4.25003H11.25C11.5937 4.25003 11.875 3.96878 11.875 3.62503C11.875 3.28128 11.5937 3.00003 11.25 3.00003Z" fill="#F53C2B"/>
</svg>
