<svg  viewBox="0 0 16 21" fill="none" xmlns="http://www.w3.org/2000/svg">
<path d="M9.40625 9.10559H15.5586C15.6021 9.10559 15.6438 9.12287 15.6746 9.15364C15.7054 9.18441 15.7227 9.22614 15.7227 9.26965V17.5314C15.7227 18.2742 15.4276 18.9866 14.9023 19.5118C14.3771 20.0371 13.6647 20.3321 12.9219 20.3321H3.07812C2.33531 20.3321 1.62292 20.0371 1.09767 19.5118C0.572425 18.9866 0.277344 18.2742 0.277344 17.5314V3.46887C0.277344 2.72606 0.572425 2.01367 1.09767 1.48842C1.62292 0.963172 2.33531 0.668091 3.07812 0.668091H7.12109C7.16461 0.668091 7.20634 0.685376 7.2371 0.716144C7.26787 0.746911 7.28516 0.788641 7.28516 0.832153V6.9845C7.28516 7.54704 7.50863 8.08655 7.90641 8.48434C8.30419 8.88212 8.8437 9.10559 9.40625 9.10559ZM4.48437 16.1368H11.5156C11.7052 16.1368 11.887 16.0615 12.0211 15.9275C12.1552 15.7934 12.2305 15.6116 12.2305 15.422C12.2305 15.2324 12.1552 15.0506 12.0211 14.9165C11.887 14.7825 11.7052 14.7071 11.5156 14.7071H4.48437C4.29479 14.7071 4.11296 14.7825 3.9789 14.9165C3.84484 15.0506 3.76953 15.2324 3.76953 15.422C3.76953 15.6116 3.84484 15.7934 3.9789 15.9275C4.11296 16.0615 4.29479 16.1368 4.48437 16.1368ZM4.48437 12.6212H11.5156C11.7052 12.6212 11.887 12.5459 12.0211 12.4118C12.1552 12.2778 12.2305 12.096 12.2305 11.9064C12.2305 11.7168 12.1552 11.535 12.0211 11.4009C11.887 11.2668 11.7052 11.1915 11.5156 11.1915H4.48437C4.29479 11.1915 4.11296 11.2668 3.9789 11.4009C3.84484 11.535 3.76953 11.7168 3.76953 11.9064C3.76953 12.096 3.84484 12.2778 3.9789 12.4118C4.11296 12.5459 4.29479 12.6212 4.48437 12.6212ZM8.84472 1.22741L15.1644 7.54714C15.175 7.55779 15.1822 7.57133 15.1851 7.58607C15.1881 7.6008 15.1866 7.61607 15.1808 7.62995C15.1751 7.64383 15.1654 7.6557 15.1529 7.66407C15.1404 7.67245 15.1258 7.67695 15.1107 7.67701H9.40625C9.22288 7.67701 9.04702 7.60417 8.91735 7.4745C8.78769 7.34484 8.71484 7.16898 8.71484 6.98561V1.28111C8.71491 1.26609 8.71941 1.25143 8.72778 1.23896C8.73616 1.22649 8.74803 1.21678 8.76191 1.21104C8.77579 1.2053 8.79105 1.20379 8.80579 1.20671C8.82051 1.20962 8.83404 1.21681 8.84469 1.22739L8.84472 1.22741Z" fill="currentColor" stroke="currentColor" stroke-width="0.0234375"/>
</svg>
