<svg width="20" height="21" viewBox="0 0 20 21" fill="none" xmlns="http://www.w3.org/2000/svg">
<path d="M4.1231 4.09963C3.95423 3.97973 3.72013 4.01943 3.60024 4.1883C3.48034 4.35717 3.52004 4.59127 3.68891 4.71117L4.1231 4.09963ZM16.3109 4.71117C16.4798 4.59127 16.5195 4.35717 16.3996 4.1883C16.2797 4.01943 16.0456 3.97973 15.8767 4.09963L16.3109 4.71117ZM15.8767 16.9001C16.0456 17.02 16.2797 16.9803 16.3996 16.8114C16.5195 16.6425 16.4798 16.4084 16.3109 16.2885L15.8767 16.9001ZM3.68891 16.2885C3.52004 16.4084 3.48034 16.6425 3.60024 16.8114C3.72013 16.9803 3.95423 17.02 4.1231 16.9001L3.68891 16.2885ZM10 0.98346C4.74489 0.98346 0.484375 5.24398 0.484375 10.4991H1.23437C1.23437 5.65819 5.15911 1.73346 10 1.73346V0.98346ZM0.484375 10.4991C0.484375 15.7542 4.74489 20.0147 10 20.0147V19.2647C5.15911 19.2647 1.23437 15.34 1.23437 10.4991H0.484375ZM10 20.0147C15.2551 20.0147 19.5156 15.7542 19.5156 10.4991H18.7656C18.7656 15.34 14.8409 19.2647 10 19.2647V20.0147ZM19.5156 10.4991C19.5156 5.24398 15.2551 0.98346 10 0.98346V1.73346C14.8409 1.73346 18.7656 5.65819 18.7656 10.4991H19.5156ZM10 0.98346C8.51735 0.98346 7.18115 2.15851 6.23951 3.85367C5.28583 5.5705 4.67358 7.91984 4.67358 10.4991H5.42358C5.42358 8.03033 6.0111 5.80935 6.89515 4.21787C7.79123 2.60472 8.93074 1.73346 10 1.73346V0.98346ZM4.67358 10.4991C4.67358 13.0783 5.28583 15.4277 6.23951 17.1445C7.18115 18.8397 8.51735 20.0147 10 20.0147V19.2647C8.93074 19.2647 7.79123 18.3934 6.89515 16.7803C6.0111 15.1888 5.42358 12.9678 5.42358 10.4991H4.67358ZM10 20.0147C11.4827 20.0147 12.8188 18.8396 13.7604 17.1445C14.714 15.4277 15.3262 13.0783 15.3262 10.4991H14.5762C14.5762 12.9678 13.9888 15.1888 13.1048 16.7803C12.2087 18.3935 11.0692 19.2647 10 19.2647V20.0147ZM15.3262 10.4991C15.3262 7.91985 14.714 5.57051 13.7604 3.85368C12.8188 2.15852 11.4827 0.98346 10 0.98346V1.73346C11.0692 1.73346 12.2087 2.60471 13.1048 4.21786C13.9888 5.80934 14.5762 8.03032 14.5762 10.4991H15.3262ZM3.68891 4.71117C5.4329 5.94938 7.62432 6.68499 9.9999 6.68499V5.93499C7.77969 5.93499 5.74005 5.24764 4.1231 4.09963L3.68891 4.71117ZM9.9999 6.68499C12.3755 6.68499 14.5669 5.94938 16.3109 4.71117L15.8767 4.09963C14.2598 5.24764 12.2201 5.93499 9.9999 5.93499V6.68499ZM16.3109 16.2885C14.5669 15.0503 12.3755 14.3147 9.9999 14.3147V15.0647C12.2201 15.0647 14.2598 15.752 15.8767 16.9001L16.3109 16.2885ZM9.9999 14.3147C7.62432 14.3147 5.4329 15.0503 3.68891 16.2885L4.1231 16.9001C5.74005 15.752 7.77969 15.0647 9.9999 15.0647V14.3147ZM9.625 1.35846V19.6397H10.375V1.35846H9.625ZM19.1406 10.1241H0.859375V10.8741H19.1406V10.1241Z" fill="currentColor"/>
</svg>
