<svg width="10" height="9" viewBox="0 0 10 9" fill="none" xmlns="http://www.w3.org/2000/svg">
<path d="M6.82273 0.85404C7.30578 0.855483 7.76865 1.04802 8.11022 1.38959C8.4518 1.73117 8.64433 2.19403 8.64577 2.67709V6.32279C8.64433 6.80585 8.4518 7.26871 8.11022 7.61028C7.76865 7.95186 7.30578 8.14439 6.82273 8.14583H3.17703C2.69397 8.14439 2.23111 7.95186 1.88953 7.61028C1.54796 7.26871 1.35542 6.80585 1.35398 6.32279V2.67709C1.35542 2.19403 1.54796 1.73117 1.88953 1.38959C2.23111 1.04802 2.69397 0.855483 3.17703 0.85404H6.82273ZM6.82273 0.124939H3.17703C1.77331 0.124939 0.624878 1.27338 0.624878 2.67709V6.32279C0.624878 7.7265 1.77331 8.87494 3.17703 8.87494H6.82273C8.22644 8.87494 9.37487 7.7265 9.37487 6.32279V2.67709C9.37487 1.27338 8.22644 0.124939 6.82273 0.124939Z" fill="white"/>
<path d="M7.36963 2.67699C7.26147 2.67699 7.15573 2.64492 7.0658 2.58483C6.97587 2.52474 6.90577 2.43933 6.86438 2.3394C6.82299 2.23947 6.81216 2.12951 6.83326 2.02343C6.85436 1.91735 6.90645 1.8199 6.98293 1.74342C7.05941 1.66694 7.15686 1.61485 7.26294 1.59375C7.36902 1.57265 7.47898 1.58348 7.57891 1.62487C7.67884 1.66626 7.76425 1.73636 7.82434 1.82629C7.88443 1.91622 7.9165 2.02196 7.9165 2.13012C7.91666 2.20198 7.90262 2.27316 7.87519 2.33958C7.84776 2.406 7.80748 2.46635 7.75667 2.51716C7.70586 2.56798 7.64551 2.60825 7.57909 2.63568C7.51267 2.66311 7.44149 2.67715 7.36963 2.67699Z" fill="white"/>
<path d="M4.99988 3.0413C5.28832 3.0413 5.57029 3.12683 5.81012 3.28708C6.04995 3.44733 6.23688 3.6751 6.34726 3.94159C6.45764 4.20808 6.48653 4.50131 6.43025 4.78421C6.37398 5.06711 6.23508 5.32698 6.03112 5.53094C5.82716 5.7349 5.5673 5.8738 5.2844 5.93007C5.0015 5.98634 4.70826 5.95746 4.44177 5.84708C4.17529 5.7367 3.94752 5.54977 3.78726 5.30994C3.62701 5.0701 3.54148 4.78814 3.54148 4.49969C3.54189 4.11303 3.69568 3.74232 3.96909 3.46891C4.2425 3.19549 4.61321 3.04171 4.99988 3.0413ZM4.99988 2.31219C4.56723 2.31219 4.1443 2.44049 3.78457 2.68085C3.42484 2.92122 3.14446 3.26286 2.97889 3.66257C2.81333 4.06229 2.77001 4.50212 2.85441 4.92645C2.93882 5.35079 3.14716 5.74056 3.45308 6.04649C3.75901 6.35242 4.14878 6.56076 4.57312 6.64516C4.99745 6.72957 5.43728 6.68625 5.837 6.52068C6.23671 6.35511 6.57835 6.07474 6.81872 5.715C7.05908 5.35527 7.18738 4.93234 7.18738 4.49969C7.18738 3.91953 6.95691 3.36313 6.54667 2.9529C6.13644 2.54266 5.58004 2.31219 4.99988 2.31219Z" fill="white"/>
</svg>
