<svg width="21" height="20" viewBox="0 0 21 20" fill="none" xmlns="http://www.w3.org/2000/svg">
<path d="M18.687 -0.000793457H2.31305C1.31172 -0.000793457 0.5 0.810925 0.5 1.81225V18.1862C0.5 19.1875 1.31172 19.9992 2.31305 19.9992H18.687C19.6883 19.9992 20.5 19.1875 20.5 18.1862V1.81225C20.5 0.810925 19.6883 -0.000793457 18.687 -0.000793457Z" fill="#DC395F"/>
<path d="M7.18392 6.29259C7.84877 6.29259 8.40572 5.7715 8.40572 5.08853C8.40572 4.40603 7.84877 3.88501 7.18392 3.88501C6.51908 3.88501 5.96228 4.40603 5.96228 5.08853C5.96228 5.77142 6.51908 6.29259 7.18392 6.29259ZM4.65064 12.7395C4.57884 13.0449 4.54283 13.3748 4.54283 13.6439C4.54283 14.7041 5.11775 15.4079 6.33955 15.4079C7.35283 15.4079 8.17431 14.8062 8.7658 13.8346L8.40463 15.284H10.4167L11.5667 10.6716C11.8542 9.50377 12.4112 8.8976 13.2557 8.8976C13.9205 8.8976 14.3337 9.31104 14.3337 9.99354C14.3337 10.1913 14.3157 10.4067 14.2438 10.6403L13.6509 12.7604C13.561 13.0659 13.5253 13.3715 13.5253 13.6588C13.5253 14.6653 14.118 15.4014 15.3577 15.4014C16.4178 15.4014 17.2622 14.719 17.7294 13.0839L16.9389 12.7788C16.5436 13.8742 16.2022 14.0722 15.9327 14.0722C15.6631 14.0722 15.5194 13.8927 15.5194 13.5335C15.5194 13.3718 15.5555 13.1924 15.6092 12.9763L16.1843 10.9108C16.328 10.4258 16.382 9.99573 16.382 9.60057C16.382 8.05541 15.4476 7.249 14.3157 7.249C13.2557 7.249 12.1776 8.20518 11.6387 9.21151L12.0338 7.40525H8.96166L8.53041 8.99619H9.96783L9.08267 12.5399C8.38759 14.0851 7.1108 14.1102 6.95056 14.0743C6.68744 14.015 6.51916 13.915 6.51916 13.5732C6.51916 13.3759 6.55509 13.0925 6.64494 12.7509L7.99259 7.40525H4.57884L4.14759 8.99619H5.56689L4.65064 12.7395Z" fill="white"/>
</svg>
