<svg width="14" height="12" viewBox="0 0 14 12" fill="none" xmlns="http://www.w3.org/2000/svg">
<path d="M0.4375 9.5152C0.4375 9.95032 0.610351 10.3676 0.918028 10.6753C1.2257 10.983 1.643 11.1558 2.07812 11.1558H11.9219C12.357 11.1558 12.7743 10.983 13.082 10.6753C13.3896 10.3676 13.5625 9.95032 13.5625 9.5152V5.00348H0.4375V9.5152ZM2.37109 7.28863C2.37109 7.05553 2.46369 6.83198 2.62852 6.66715C2.79335 6.50233 3.0169 6.40973 3.25 6.40973H4.65625C4.88935 6.40973 5.1129 6.50233 5.27773 6.66715C5.44256 6.83198 5.53515 7.05553 5.53515 7.28863V7.87457C5.53515 8.10767 5.44256 8.33123 5.27773 8.49605C5.1129 8.66088 4.88935 8.75348 4.65625 8.75348H3.25C3.0169 8.75348 2.79335 8.66088 2.62852 8.49605C2.46369 8.33123 2.37109 8.10767 2.37109 7.87457V7.28863Z" fill="currentColor"/>
<path d="M11.9219 0.842957H2.07812C1.643 0.842957 1.2257 1.01581 0.918028 1.32348C0.610351 1.63116 0.4375 2.04846 0.4375 2.48358V3.2453H13.5625V2.48358C13.5625 2.04846 13.3896 1.63116 13.082 1.32348C12.7743 1.01581 12.357 0.842957 11.9219 0.842957Z" fill="currentColor"/>
</svg>
