<svg width="16" height="14" viewBox="0 0 16 14" fill="none" xmlns="http://www.w3.org/2000/svg">
<path d="M8.16264 2.46751C8.11903 2.42578 8.06099 2.4025 8.00063 2.4025C7.94027 2.4025 7.88224 2.42578 7.83862 2.46751L2.44507 7.61995C2.42216 7.64186 2.40394 7.66819 2.3915 7.69735C2.37906 7.7265 2.37267 7.75788 2.3727 7.78958L2.37183 12.6253C2.37183 12.874 2.4706 13.1124 2.64641 13.2882C2.82223 13.464 3.06069 13.5628 3.30933 13.5628H6.12475C6.24907 13.5628 6.3683 13.5134 6.45621 13.4255C6.54412 13.3376 6.5935 13.2184 6.5935 13.0941V9.10969C6.5935 9.04753 6.6182 8.98792 6.66215 8.94396C6.7061 8.90001 6.76572 8.87532 6.82788 8.87532H9.17163C9.23379 8.87532 9.2934 8.90001 9.33736 8.94396C9.38131 8.98792 9.406 9.04753 9.406 9.10969V13.0941C9.406 13.2184 9.45539 13.3376 9.5433 13.4255C9.6312 13.5134 9.75043 13.5628 9.87475 13.5628H12.689C12.9377 13.5628 13.1761 13.464 13.3519 13.2882C13.5277 13.1124 13.6265 12.874 13.6265 12.6253V7.78958C13.6265 7.75788 13.6202 7.7265 13.6077 7.69735C13.5953 7.66819 13.5771 7.64186 13.5541 7.61995L8.16264 2.46751Z" fill="currentColor"/>
<path d="M14.8821 6.65369L12.6907 4.5572V1.37585C12.6907 1.25153 12.6413 1.13231 12.5534 1.0444C12.4655 0.95649 12.3463 0.907104 12.222 0.907104H10.8157C10.6914 0.907104 10.5722 0.95649 10.4843 1.0444C10.3964 1.13231 10.347 1.25153 10.347 1.37585V2.31335L8.65011 0.690894C8.49132 0.530347 8.25518 0.438354 8.00001 0.438354C7.74571 0.438354 7.51017 0.530347 7.35138 0.691187L1.11993 6.6531C0.937706 6.82888 0.914855 7.11804 1.08068 7.30847C1.12232 7.35654 1.1733 7.39563 1.23053 7.42337C1.28776 7.4511 1.35003 7.4669 1.41356 7.46981C1.47709 7.47272 1.54054 7.46266 1.60006 7.44026C1.65958 7.41787 1.71392 7.38359 1.75978 7.33953L7.83888 1.53054C7.88249 1.48882 7.94053 1.46553 8.00089 1.46553C8.06125 1.46553 8.11928 1.48882 8.1629 1.53054L14.2426 7.33953C14.3321 7.42541 14.4521 7.47228 14.5762 7.46986C14.7002 7.46745 14.8183 7.41594 14.9044 7.32663C15.0843 7.14031 15.0693 6.83269 14.8821 6.65369Z" fill="currentColor"/>
</svg>
