<svg width="18" height="19" viewBox="0 0 18 19" fill="none" xmlns="http://www.w3.org/2000/svg">
<path d="M9 0.499954C4.03125 0.499954 0 4.5312 0 9.49995C0 14.4687 4.03125 18.5 9 18.5C13.9687 18.5 18 14.4687 18 9.49995C18 4.5312 13.9687 0.499954 9 0.499954ZM8.71875 14.75C8.53333 14.75 8.35207 14.695 8.1979 14.592C8.04373 14.4889 7.92357 14.3425 7.85261 14.1712C7.78165 13.9999 7.76309 13.8114 7.79926 13.6296C7.83544 13.4477 7.92472 13.2806 8.05584 13.1495C8.18695 13.0184 8.35399 12.9291 8.53585 12.893C8.71771 12.8568 8.90621 12.8754 9.07751 12.9463C9.24882 13.0173 9.39524 13.1374 9.49825 13.2916C9.60126 13.4458 9.65625 13.627 9.65625 13.8125C9.65625 14.0611 9.55748 14.2995 9.38166 14.4754C9.20585 14.6512 8.96739 14.75 8.71875 14.75ZM10.2862 9.9687C9.5264 10.4787 9.42187 10.946 9.42187 11.375C9.42187 11.549 9.35273 11.7159 9.22966 11.839C9.10659 11.9621 8.93967 12.0312 8.76562 12.0312C8.59157 12.0312 8.42465 11.9621 8.30158 11.839C8.17851 11.7159 8.10937 11.549 8.10937 11.375C8.10937 10.3479 8.58187 9.53136 9.55406 8.87839C10.4578 8.27183 10.9687 7.88745 10.9687 7.0423C10.9687 6.46761 10.6406 6.0312 9.9614 5.70823C9.80156 5.6323 9.44578 5.55823 9.00797 5.56339C8.45859 5.57042 8.03203 5.70167 7.70344 5.96605C7.08375 6.4648 7.03125 7.00761 7.03125 7.01558C7.02709 7.10176 7.006 7.18628 6.96919 7.26431C6.93237 7.34233 6.88054 7.41235 6.81666 7.47035C6.75279 7.52835 6.67811 7.5732 6.5969 7.60234C6.51569 7.63148 6.42954 7.64434 6.34336 7.64019C6.25718 7.63603 6.17266 7.61494 6.09463 7.57812C6.0166 7.54131 5.94659 7.48948 5.88859 7.4256C5.83059 7.36173 5.78574 7.28705 5.75659 7.20584C5.72745 7.12463 5.71459 7.03848 5.71875 6.9523C5.7239 6.83839 5.80312 5.8123 6.87984 4.94605C7.43812 4.49698 8.14828 4.26355 8.98922 4.25323C9.58453 4.2462 10.1437 4.34698 10.523 4.52605C11.6578 5.06277 12.2812 5.95761 12.2812 7.0423C12.2812 8.62808 11.2214 9.34011 10.2862 9.9687Z" fill="currentColor"/>
</svg>
