<svg width="14" height="14" viewBox="0 0 14 14" fill="none" xmlns="http://www.w3.org/2000/svg">
<path d="M9.24558 1.39178C8.67547 0.776251 7.87918 0.437286 7.00027 0.437286C6.11668 0.437286 5.31775 0.7742 4.75027 1.38592C4.17664 2.00438 3.89715 2.8449 3.96277 3.75252C4.09285 5.54314 5.45545 6.99978 7.00027 6.99978C8.5451 6.99978 9.90535 5.54344 10.0375 3.75311C10.104 2.85369 9.82273 2.01492 9.24558 1.39178Z" fill="currentColor"/>
<path d="M12.1564 13.5616H1.84392C1.70894 13.5634 1.57526 13.535 1.45262 13.4786C1.32997 13.4222 1.22145 13.3392 1.13493 13.2356C0.944503 13.0079 0.867746 12.6971 0.924582 12.3827C1.17185 11.011 1.94353 9.8588 3.15642 9.04991C4.23396 8.33185 5.5989 7.93663 7.00016 7.93663C8.40143 7.93663 9.76637 8.33214 10.8439 9.04991C12.0568 9.85851 12.8285 11.0108 13.0757 12.3824C13.1326 12.6968 13.0558 13.0076 12.8654 13.2353C12.7789 13.3389 12.6704 13.422 12.5478 13.4785C12.4251 13.5349 12.2914 13.5633 12.1564 13.5616Z" fill="currentColor"/>
</svg>
