<svg width="14" height="14" viewBox="0 0 14 14" fill="none" xmlns="http://www.w3.org/2000/svg">
<path d="M13.2568 3.03133C13.2231 2.96568 13.1743 2.90893 13.1144 2.86571C13.0546 2.82248 12.9854 2.794 12.9125 2.78257C12.8395 2.77115 12.7649 2.77712 12.6948 2.79998C12.6246 2.82284 12.5608 2.86196 12.5086 2.91414L10.7086 4.71531C10.6202 4.80239 10.5011 4.8512 10.3771 4.8512C10.253 4.8512 10.1339 4.80239 10.0456 4.71531L9.26745 3.93601C9.22391 3.89249 9.18938 3.84081 9.16581 3.78393C9.14225 3.72705 9.13012 3.66609 9.13012 3.60452C9.13012 3.54295 9.14225 3.48199 9.16581 3.42511C9.18938 3.36823 9.22391 3.31655 9.26745 3.27303L11.0598 1.48035C11.1136 1.42663 11.1534 1.36065 11.176 1.28809C11.1986 1.21554 11.2032 1.13858 11.1894 1.06386C11.1756 0.989138 11.1439 0.918885 11.0969 0.859153C11.0499 0.799421 10.9892 0.752 10.9198 0.720976C9.56599 0.115703 7.87614 0.431523 6.81062 1.48914C5.90534 2.38797 5.63552 3.79246 6.07087 5.34256C6.09434 5.42522 6.09448 5.51276 6.07126 5.5955C6.04804 5.67823 6.00238 5.75293 5.93933 5.81131L1.06199 10.2659C0.87198 10.4365 0.718719 10.644 0.611554 10.8758C0.504389 11.1076 0.445566 11.3588 0.438673 11.614C0.431781 11.8693 0.476963 12.1233 0.571464 12.3605C0.665965 12.5977 0.807804 12.8132 0.988328 12.9938C1.16885 13.1744 1.38428 13.3164 1.62146 13.411C1.85865 13.5056 2.11262 13.5509 2.36788 13.5441C2.62315 13.5373 2.87436 13.4786 3.10619 13.3715C3.33801 13.2645 3.5456 13.1113 3.71628 12.9214L8.21863 8.03318C8.27617 7.97094 8.3496 7.92558 8.43101 7.90199C8.51242 7.8784 8.59873 7.87746 8.68064 7.89929C9.12195 8.02021 9.57717 8.08295 10.0347 8.08592C11.0133 8.08592 11.8719 7.76922 12.4913 7.15896C13.6383 6.02898 13.8132 4.11238 13.2568 3.03133ZM2.41521 12.6006C2.22226 12.6216 2.02753 12.5823 1.85789 12.488C1.68826 12.3936 1.55208 12.249 1.46815 12.074C1.38423 11.899 1.35669 11.7022 1.38934 11.5109C1.422 11.3196 1.51323 11.1431 1.65045 11.0058C1.78768 10.8685 1.96412 10.7772 2.15544 10.7445C2.34676 10.7118 2.54351 10.7393 2.71856 10.8231C2.8936 10.907 3.0383 11.0431 3.13268 11.2127C3.22706 11.3823 3.26648 11.577 3.24548 11.77C3.22238 11.9823 3.12749 12.1804 2.97651 12.3314C2.82553 12.4824 2.62751 12.5774 2.41521 12.6006Z" fill="currentColor"/>
</svg>
