<svg width="14" height="14" viewBox="0 0 14 14" fill="none" xmlns="http://www.w3.org/2000/svg">
<path d="M13.4933 0.621536C13.4879 0.595625 13.4753 0.571776 13.4569 0.552785C13.4384 0.533793 13.415 0.520447 13.3892 0.514309C11.6733 0.0947781 7.70859 1.5898 5.56054 3.73696C5.17742 4.11699 4.82815 4.52968 4.5167 4.97036C3.85429 4.91177 3.19189 4.96069 2.62734 5.20679C1.03447 5.90786 0.570701 7.73716 0.441501 8.52407C0.434173 8.56714 0.436937 8.61133 0.449577 8.65315C0.462216 8.69497 0.484386 8.73329 0.514343 8.76509C0.5443 8.79689 0.581227 8.82131 0.622219 8.83643C0.663212 8.85154 0.707152 8.85694 0.750583 8.8522L3.30849 8.57007C3.31032 8.76292 3.32196 8.95555 3.34336 9.14721C3.35623 9.28032 3.41531 9.4047 3.51035 9.49878L4.50087 10.487C4.59503 10.5819 4.71938 10.6409 4.85244 10.654C5.04303 10.6753 5.23459 10.6869 5.42636 10.6888L5.1457 13.2435C5.14102 13.2869 5.14646 13.3308 5.16159 13.3718C5.17673 13.4128 5.20115 13.4497 5.23294 13.4796C5.26472 13.5095 5.30302 13.5317 5.34481 13.5444C5.3866 13.557 5.43076 13.5599 5.47382 13.5526C6.25927 13.4266 8.09179 12.9628 8.78876 11.37C9.03486 10.8054 9.08525 10.1462 9.02841 9.48706C9.47016 9.17558 9.88393 8.82622 10.265 8.44292C12.4198 6.29897 13.9063 2.42271 13.4933 0.621536ZM8.11523 5.8853C7.91847 5.68867 7.78445 5.4381 7.73011 5.16529C7.67578 4.89248 7.70357 4.60968 7.80998 4.35267C7.91639 4.09566 8.09663 3.87598 8.3279 3.72142C8.55918 3.56686 8.8311 3.48436 9.10927 3.48436C9.38744 3.48436 9.65936 3.56686 9.89064 3.72142C10.1219 3.87598 10.3022 4.09566 10.4086 4.35267C10.515 4.60968 10.5428 4.89248 10.4884 5.16529C10.4341 5.4381 10.3001 5.68867 10.1033 5.8853C9.97284 6.01596 9.81789 6.11962 9.64732 6.19034C9.47676 6.26106 9.29392 6.29746 9.10927 6.29746C8.92462 6.29746 8.74179 6.26106 8.57122 6.19034C8.40065 6.11962 8.2457 6.01596 8.11523 5.8853Z" fill="currentColor"/>
<path d="M4.43359 11.2028C4.27305 11.3636 4.01553 11.4263 3.70557 11.4799C3.00918 11.5986 2.39424 10.9968 2.51934 10.2928C2.56709 10.0259 2.7083 9.65178 2.79619 9.56389C2.8154 9.54505 2.82819 9.52063 2.83273 9.49411C2.83728 9.46759 2.83336 9.44031 2.82152 9.41615C2.80968 9.39199 2.79053 9.37217 2.76679 9.35951C2.74305 9.34685 2.71592 9.34199 2.68926 9.34562C2.29983 9.39327 1.93754 9.56983 1.66006 9.84719C0.971289 10.5365 0.90625 13.0945 0.90625 13.0945C0.90625 13.0945 3.46562 13.0294 4.15439 12.3401C4.43261 12.0628 4.60939 11.7 4.65625 11.31C4.66709 11.1875 4.51797 11.1146 4.43359 11.2028Z" fill="currentColor"/>
</svg>
