<svg width="14" height="16" viewBox="0 0 14 16" fill="none" xmlns="http://www.w3.org/2000/svg">
<path d="M2.54687 15.0316H1.60937C1.42289 15.0316 1.24405 14.9575 1.11219 14.8256C0.980329 14.6938 0.90625 14.5149 0.90625 14.3284V10.1097C0.90625 9.9232 0.980329 9.74436 1.11219 9.6125C1.24405 9.48063 1.42289 9.40656 1.60937 9.40656H2.54687C2.73335 9.40656 2.9122 9.48063 3.04406 9.6125C3.17592 9.74436 3.25 9.9232 3.25 10.1097V14.3284C3.25 14.5149 3.17592 14.6938 3.04406 14.8256C2.9122 14.9575 2.73335 15.0316 2.54687 15.0316Z" fill="currentColor"/>
<path d="M9.10937 15.0308H8.17187C7.98539 15.0308 7.80655 14.9567 7.67469 14.8248C7.54283 14.693 7.46875 14.5141 7.46875 14.3276V7.29639C7.46875 7.10991 7.54283 6.93106 7.67469 6.7992C7.80655 6.66734 7.98539 6.59326 8.17187 6.59326H9.10937C9.29585 6.59326 9.4747 6.66734 9.60656 6.7992C9.73842 6.93106 9.8125 7.10991 9.8125 7.29639V14.3276C9.8125 14.5141 9.73842 14.693 9.60656 14.8248C9.4747 14.9567 9.29585 15.0308 9.10937 15.0308Z" fill="currentColor"/>
<path d="M12.3906 15.0311H11.4531C11.2666 15.0311 11.0878 14.957 10.9559 14.8252C10.8241 14.6933 10.75 14.5144 10.75 14.328V4.01547C10.75 3.82899 10.8241 3.65015 10.9559 3.51829C11.0878 3.38643 11.2666 3.31235 11.4531 3.31235H12.3906C12.5771 3.31235 12.7559 3.38643 12.8878 3.51829C13.0197 3.65015 13.0937 3.82899 13.0937 4.01547V14.328C13.0937 14.5144 13.0197 14.6933 12.8878 14.8252C12.7559 14.957 12.5771 15.0311 12.3906 15.0311Z" fill="currentColor"/>
<path d="M5.82812 15.0309H4.89062C4.70414 15.0309 4.5253 14.9569 4.39344 14.825C4.26158 14.6931 4.1875 14.5143 4.1875 14.3278V1.67157C4.1875 1.48509 4.26158 1.30625 4.39344 1.17439C4.5253 1.04252 4.70414 0.968445 4.89062 0.968445H5.82812C6.0146 0.968445 6.19345 1.04252 6.32531 1.17439C6.45717 1.30625 6.53125 1.48509 6.53125 1.67157V14.3278C6.53125 14.5143 6.45717 14.6931 6.32531 14.825C6.19345 14.9569 6.0146 15.0309 5.82812 15.0309Z" fill="currentColor"/>
</svg>
