<svg viewBox="0 0 9 11" fill="none" xmlns="http://www.w3.org/2000/svg">
<path d="M8.81432 7.4992C8.77541 7.45233 8.73721 7.40545 8.69971 7.36022C8.18408 6.73655 7.87213 6.36014 7.87213 4.5946C7.87213 3.68053 7.65346 2.93054 7.22244 2.36804C6.90463 1.95249 6.47502 1.63725 5.90877 1.40429C5.90149 1.40023 5.89498 1.39492 5.88955 1.38858C5.68588 0.706552 5.12854 0.249756 4.49995 0.249756C3.87135 0.249756 3.31424 0.706552 3.11057 1.38788C3.10514 1.39398 3.09872 1.39913 3.09159 1.40311C1.77018 1.9471 1.12799 2.99077 1.12799 4.59389C1.12799 6.36014 0.81651 6.73655 0.300416 7.35952C0.262916 7.40475 0.224713 7.45069 0.185807 7.4985C0.0853072 7.6197 0.0216323 7.76716 0.00231807 7.92342C-0.0169962 8.07967 0.00885856 8.2382 0.0768226 8.38022C0.221432 8.68491 0.529635 8.87405 0.881432 8.87405H8.12104C8.47119 8.87405 8.77729 8.68514 8.92236 8.38186C8.99062 8.2398 9.01672 8.08115 8.99757 7.92471C8.97842 7.76827 8.91483 7.6206 8.81432 7.4992Z" fill="currentColor"/>
<path d="M4.49996 10.75C4.83864 10.7497 5.17093 10.6578 5.46159 10.4839C5.75225 10.3101 5.99044 10.0608 6.15089 9.76255C6.15845 9.74825 6.16219 9.73225 6.16173 9.71609C6.16128 9.69992 6.15665 9.68415 6.1483 9.67031C6.13995 9.65646 6.12816 9.64501 6.11408 9.63706C6.09999 9.62912 6.08409 9.62495 6.06792 9.62497H2.93246C2.91627 9.62491 2.90034 9.62905 2.88622 9.63698C2.87211 9.6449 2.86029 9.65635 2.85191 9.6702C2.84353 9.68406 2.83888 9.69984 2.83842 9.71603C2.83795 9.73221 2.84169 9.74824 2.84926 9.76255C3.00969 10.0608 3.24784 10.31 3.53846 10.4839C3.82907 10.6577 4.16132 10.7497 4.49996 10.75Z" fill="currentColor"/>
</svg>
