<svg width="11" height="12" viewBox="0 0 11 12" fill="none" xmlns="http://www.w3.org/2000/svg">
<path d="M7.17151 1.51384C6.71542 1.02142 6.07839 0.750244 5.37527 0.750244C4.66839 0.750244 4.02925 1.01978 3.57527 1.50915C3.11636 2.00392 2.89277 2.67634 2.94527 3.40243C3.04933 4.83493 4.13941 6.00024 5.37527 6.00024C6.61112 6.00024 7.69933 4.83516 7.80503 3.4029C7.85823 2.68337 7.63323 2.01235 7.17151 1.51384Z" fill="currentColor"/>
<path d="M9.50013 11.2497H1.25013C1.14215 11.2511 1.03521 11.2284 0.937094 11.1833C0.838979 11.1382 0.752158 11.0718 0.682946 10.9889C0.530603 10.8068 0.469197 10.5581 0.514665 10.3066C0.712478 9.20926 1.32982 8.28746 2.30013 7.64035C3.16216 7.0659 4.25412 6.74973 5.37513 6.74973C6.49615 6.74973 7.5881 7.06613 8.45013 7.64035C9.42044 8.28722 10.0378 9.20902 10.2356 10.3064C10.2811 10.5578 10.2197 10.8065 10.0673 10.9886C9.99813 11.0716 9.91131 11.138 9.8132 11.1832C9.71508 11.2284 9.60813 11.2511 9.50013 11.2497Z" fill="currentColor"/>
</svg>
