<svg width="12" height="12" viewBox="0 0 12 12" fill="none" xmlns="http://www.w3.org/2000/svg">
<path d="M11.661 0.934638C11.6566 0.913046 11.6461 0.893172 11.6307 0.877346C11.6154 0.86152 11.5958 0.850398 11.5744 0.845283C10.1444 0.495674 6.84049 1.74152 5.05045 3.53083C4.73118 3.84752 4.44012 4.19143 4.18058 4.55866C3.62858 4.50983 3.07658 4.5506 2.60612 4.75568C1.27872 5.33991 0.89225 6.86432 0.784584 7.52008C0.778477 7.55598 0.780781 7.5928 0.791314 7.62765C0.801847 7.6625 0.820322 7.69443 0.845286 7.72093C0.87025 7.74744 0.901022 7.76779 0.935183 7.78038C0.969343 7.79298 1.00596 7.79748 1.04215 7.79352L3.17374 7.55841C3.17527 7.71912 3.18496 7.87965 3.2028 8.03937C3.21352 8.15029 3.26276 8.25395 3.34196 8.33234L4.1674 9.15583C4.24586 9.23492 4.34948 9.28414 4.46036 9.29499C4.61919 9.31275 4.77882 9.32245 4.93864 9.32404L4.70475 11.4529C4.70085 11.4891 4.70538 11.5257 4.71799 11.5599C4.73061 11.594 4.75096 11.6247 4.77745 11.6497C4.80394 11.6746 4.83585 11.6931 4.87067 11.7037C4.9055 11.7142 4.9423 11.7166 4.97819 11.7105C5.63273 11.6055 7.15983 11.2191 7.74064 9.89167C7.94571 9.42121 7.98771 8.87189 7.94034 8.32257C8.30846 8.06301 8.65327 7.77187 8.97086 7.45246C10.7665 5.66584 12.0053 2.43561 11.661 0.934638ZM7.17936 5.32111C7.01539 5.15725 6.9037 4.94845 6.85843 4.7211C6.81315 4.49376 6.83631 4.2581 6.92498 4.04392C7.01366 3.82974 7.16386 3.64668 7.35659 3.51787C7.54932 3.38907 7.77592 3.32032 8.00773 3.32032C8.23953 3.32032 8.46613 3.38907 8.65886 3.51787C8.85159 3.64668 9.0018 3.82974 9.09047 4.04392C9.17914 4.2581 9.20231 4.49376 9.15703 4.7211C9.11175 4.94845 9.00006 5.15725 8.83609 5.32111C8.72737 5.42999 8.59824 5.51637 8.4561 5.57531C8.31396 5.63424 8.1616 5.66458 8.00773 5.66458C7.85385 5.66458 7.70149 5.63424 7.55935 5.57531C7.41721 5.51637 7.28808 5.42999 7.17936 5.32111Z" fill="currentColor"/>
<path d="M4.11133 9.75231C3.97754 9.88634 3.76294 9.93859 3.50464 9.98327C2.92432 10.0821 2.41186 9.58068 2.51611 8.99401C2.55591 8.7716 2.67358 8.45983 2.74683 8.38659C2.76283 8.37089 2.77349 8.35055 2.77728 8.32845C2.78107 8.30635 2.7778 8.28361 2.76793 8.26348C2.75807 8.24334 2.74211 8.22683 2.72232 8.21628C2.70254 8.20572 2.67993 8.20168 2.65771 8.20471C2.33319 8.24441 2.03128 8.39154 1.80005 8.62267C1.22607 9.19714 1.17188 11.3287 1.17188 11.3287C1.17188 11.3287 3.30469 11.2745 3.87866 10.7001C4.11051 10.469 4.25783 10.1666 4.29687 9.84167C4.30591 9.73962 4.18164 9.67883 4.11133 9.75231Z" fill="currentColor"/>
</svg>
