<svg width="13" height="13" viewBox="0 0 13 13" fill="none" xmlns="http://www.w3.org/2000/svg">
<path d="M12.1433 11.1093L9.38671 8.35278C10.0504 7.46929 10.4086 6.3939 10.4074 5.28891C10.4074 2.46645 8.11113 0.170166 5.28867 0.170166C2.46621 0.170166 0.169922 2.46645 0.169922 5.28891C0.169922 8.11137 2.46621 10.4077 5.28867 10.4077C6.39365 10.4089 7.46904 10.0506 8.35254 9.38696L11.1091 12.1435C11.2486 12.2682 11.4306 12.3348 11.6177 12.3296C11.8048 12.3243 11.9828 12.2477 12.1151 12.1153C12.2474 11.983 12.3241 11.805 12.3293 11.6179C12.3346 11.4309 12.268 11.2489 12.1433 11.1093ZM1.63242 5.28891C1.63242 4.56578 1.84686 3.85888 2.24861 3.25761C2.65036 2.65634 3.22139 2.18771 3.88948 1.91098C4.55758 1.63425 5.29273 1.56184 6.00197 1.70292C6.71121 1.844 7.36269 2.19222 7.87403 2.70356C8.38536 3.21489 8.73359 3.86637 8.87466 4.57561C9.01574 5.28486 8.94334 6.02001 8.6666 6.6881C8.38987 7.35619 7.92124 7.92722 7.31997 8.32897C6.71871 8.73073 6.01181 8.94516 5.28867 8.94516C4.31933 8.944 3.39002 8.55842 2.7046 7.87299C2.01917 7.18756 1.63358 6.25825 1.63242 5.28891Z" fill="currentColor"/>
</svg>
