<svg width="11" height="11" viewBox="0 0 11 11" fill="none" xmlns="http://www.w3.org/2000/svg">
<path d="M10.7146 2.19285C10.6864 2.13814 10.6458 2.09085 10.5959 2.05483C10.5461 2.01881 10.4884 1.99507 10.4276 1.98555C10.3669 1.97604 10.3047 1.98101 10.2462 2.00006C10.1877 2.01911 10.1345 2.05171 10.091 2.09519L8.59104 3.59617C8.51741 3.66873 8.41818 3.70941 8.3148 3.70941C8.21141 3.70941 8.11218 3.66873 8.03855 3.59617L7.39011 2.94675C7.35383 2.91048 7.32505 2.86741 7.30541 2.82002C7.28578 2.77262 7.27567 2.72181 7.27567 2.67051C7.27567 2.6192 7.28578 2.5684 7.30541 2.521C7.32505 2.4736 7.35383 2.43054 7.39011 2.39426L8.88377 0.900368C8.92854 0.855598 8.96176 0.800614 8.98057 0.740152C8.99938 0.67969 9.0032 0.615563 8.99172 0.553294C8.98023 0.491025 8.95379 0.43248 8.91465 0.382704C8.87552 0.332927 8.82487 0.29341 8.76707 0.267556C7.63889 -0.236838 6.23069 0.0263452 5.34275 0.907693C4.58836 1.65672 4.3635 2.82713 4.7263 4.11887C4.74586 4.18776 4.74597 4.26071 4.72662 4.32966C4.70727 4.3986 4.66922 4.46085 4.61668 4.5095L0.552226 8.22166C0.393886 8.36382 0.266169 8.53675 0.176865 8.72991C0.0875603 8.92306 0.0385412 9.13237 0.0327974 9.34509C0.0270536 9.55781 0.0647056 9.76947 0.143457 9.96716C0.222208 10.1648 0.340406 10.3444 0.490843 10.4949C0.64128 10.6454 0.820801 10.7637 1.01845 10.8425C1.21611 10.9214 1.42775 10.9591 1.64047 10.9535C1.85319 10.9478 2.06253 10.8989 2.25572 10.8097C2.44891 10.7205 2.6219 10.5928 2.76414 10.4345L6.51609 6.36106C6.56404 6.30919 6.62524 6.27139 6.69308 6.25173C6.76092 6.23207 6.83285 6.2313 6.9011 6.24949C7.26886 6.35025 7.64821 6.40254 8.02952 6.40501C8.84495 6.40501 9.56052 6.14109 10.0766 5.63254C11.0324 4.69089 11.1782 3.09373 10.7146 2.19285ZM1.67991 10.1672C1.51912 10.1848 1.35684 10.152 1.21548 10.0734C1.07412 9.99477 0.960637 9.87423 0.890698 9.72838C0.82076 9.58254 0.797812 9.41858 0.825023 9.25914C0.852234 9.0997 0.928262 8.95264 1.04261 8.83825C1.15697 8.72385 1.304 8.64777 1.46343 8.62051C1.62287 8.59324 1.78683 8.61613 1.9327 8.68602C2.07857 8.7559 2.19915 8.86934 2.2778 9.01068C2.35645 9.15201 2.3893 9.31428 2.3718 9.47507C2.35256 9.65199 2.27348 9.81704 2.14766 9.9429C2.02184 10.0688 1.85683 10.1479 1.67991 10.1672Z" fill="currentColor"/>
</svg>
