<svg width="10" height="10" viewBox="0 0 10 10" fill="none" xmlns="http://www.w3.org/2000/svg">
<path d="M4.75 0.726501C2.28596 0.726501 0.28125 2.73121 0.28125 5.19525C0.28125 7.65929 2.28596 9.664 4.75 9.664C7.21404 9.664 9.21875 7.65929 9.21875 5.19525C9.21875 2.73121 7.21404 0.726501 4.75 0.726501ZM3.67105 3.23631C3.94326 2.94777 4.32633 2.789 4.75 2.789C5.17367 2.789 5.5533 2.94884 5.82658 3.23888C6.10351 3.53279 6.23822 3.92767 6.20643 4.3522C6.14283 5.19525 5.48971 5.88275 4.75 5.88275C4.01029 5.88275 3.35588 5.19525 3.29357 4.35199C3.26199 3.92402 3.39648 3.52785 3.67105 3.23631ZM4.75 8.9765C4.24522 8.97683 3.74551 8.8758 3.2805 8.67939C2.8155 8.48298 2.39467 8.1952 2.04297 7.8331C2.2444 7.54585 2.50105 7.30161 2.79793 7.11466C3.34557 6.76361 4.03865 6.57025 4.75 6.57025C5.46135 6.57025 6.15443 6.76361 6.70143 7.11466C6.99855 7.30153 7.25543 7.54577 7.45703 7.8331C7.10536 8.19524 6.68454 8.48305 6.21953 8.67946C5.75451 8.87587 5.25479 8.97688 4.75 8.9765Z" fill="white"/>
</svg>
