<svg width="10" height="10" viewBox="0 0 10 10" fill="none" xmlns="http://www.w3.org/2000/svg">
<path d="M4.43574 3.28679C4.43574 3.56609 4.43574 3.83679 4.52383 4.09031C3.59785 5.17742 1.15293 8.04988 0.925195 8.26902C0.879934 8.30963 0.843726 8.35931 0.818926 8.41483C0.794126 8.47036 0.781289 8.53048 0.78125 8.59129C0.78125 8.7739 0.892969 8.95007 0.9875 9.0489C1.1293 9.19714 1.73516 9.75789 1.84687 9.65047C2.17773 9.3282 2.24434 9.24226 2.37969 9.10906C2.58379 8.90925 2.3582 8.50105 2.4291 8.33562C2.5 8.17019 2.5752 8.13796 2.69766 8.11218C2.82012 8.0864 3.03711 8.17449 3.20684 8.17664C3.38516 8.17879 3.48184 8.10359 3.61504 7.97898C3.72246 7.88015 3.7998 7.78777 3.80195 7.64382C3.80625 7.45047 3.52695 7.1948 3.73535 6.9907C3.94375 6.7866 4.24453 7.1239 4.46582 7.09812C4.68711 7.07234 4.95566 6.76511 4.98359 6.63406C5.01152 6.503 4.73223 6.1657 4.77519 5.97449C4.79023 5.91004 4.92129 5.75964 5.02012 5.73816C5.11894 5.71668 5.55723 5.8864 5.65605 5.86492C5.77637 5.83914 5.91601 5.71238 6.02988 5.64148C6.36289 5.78543 6.66582 5.84343 7.05469 5.84343C8.52637 5.84343 9.71875 4.69617 9.71875 3.2825C9.71875 1.86883 8.52637 0.726501 7.05469 0.726501C5.58301 0.726501 4.43574 1.87312 4.43574 3.28679ZM8.34375 2.789C8.34375 2.92498 8.30343 3.0579 8.22788 3.17096C8.15234 3.28401 8.04497 3.37213 7.91934 3.42417C7.79372 3.4762 7.65549 3.48982 7.52212 3.46329C7.38876 3.43676 7.26626 3.37129 7.17011 3.27514C7.07396 3.17899 7.00849 3.05649 6.98196 2.92313C6.95543 2.78976 6.96905 2.65153 7.02108 2.52591C7.07312 2.40028 7.16124 2.29291 7.27429 2.21737C7.38735 2.14182 7.52027 2.1015 7.65625 2.1015C7.83859 2.1015 8.01345 2.17393 8.14239 2.30287C8.27132 2.4318 8.34375 2.60666 8.34375 2.789Z" fill="white"/>
</svg>
