<svg width="30" height="30" viewBox="0 0 30 30" fill="none" xmlns="http://www.w3.org/2000/svg">
<path d="M15.0125 2.5C8.1125 2.5 2.525 8.1 2.525 15C2.525 21.9 8.1125 27.5 15.0125 27.5C21.925 27.5 27.525 21.9 27.525 15C27.525 8.1 21.925 2.5 15.0125 2.5ZM15.025 25C9.5 25 5.025 20.525 5.025 15C5.025 9.475 9.5 5 15.025 5C20.55 5 25.025 9.475 25.025 15C25.025 20.525 20.55 25 15.025 25ZM19.4 13.75C20.4375 13.75 21.275 12.9125 21.275 11.875C21.275 10.8375 20.4375 10 19.4 10C18.3625 10 17.525 10.8375 17.525 11.875C17.525 12.9125 18.3625 13.75 19.4 13.75ZM10.65 13.75C11.6875 13.75 12.525 12.9125 12.525 11.875C12.525 10.8375 11.6875 10 10.65 10C9.6125 10 8.775 10.8375 8.775 11.875C8.775 12.9125 9.6125 13.75 10.65 13.75ZM15.025 21.875C17.5625 21.875 19.775 20.4875 20.9625 18.4375C21.2 18.025 20.9 17.5 20.4125 17.5H9.6375C9.1625 17.5 8.85 18.025 9.0875 18.4375C10.275 20.4875 12.4875 21.875 15.025 21.875Z" fill="currentColor"/>
</svg>
