<svg width="10" height="12" viewBox="0 0 10 12" fill="none" xmlns="http://www.w3.org/2000/svg">
<path d="M5.91023 5.82526C5.92716 5.82528 5.94372 5.82029 5.95783 5.81093C5.97193 5.80157 5.98296 5.78825 5.98952 5.77264C5.99609 5.75703 5.9979 5.73984 5.99472 5.72321C5.99155 5.70658 5.98353 5.69126 5.97168 5.67917L4.2873 3.96643C4.27533 3.95428 4.26002 3.94596 4.24331 3.94254C4.22659 3.93912 4.20924 3.94075 4.19346 3.94723C4.17768 3.9537 4.16418 3.96472 4.15468 3.9789C4.14519 3.99307 4.14012 4.00975 4.14014 4.0268V5.56745C4.14014 5.63582 4.1673 5.7014 4.21565 5.74975C4.264 5.7981 4.32957 5.82526 4.39795 5.82526H5.91023Z" fill="#2D3748"/>
<path d="M3.73193 6.23361C3.64369 6.14655 3.57357 6.04287 3.52563 5.92855C3.47769 5.81424 3.45288 5.69156 3.45264 5.5676V3.59103H1.90576C1.54142 3.59211 1.19231 3.73732 0.934679 3.99495C0.67705 4.25258 0.531839 4.60169 0.530762 4.96603V9.77853C0.530762 10.1432 0.675627 10.4929 0.93349 10.7508C1.19135 11.0087 1.54109 11.1535 1.90576 11.1535H4.99951C5.36418 11.1535 5.71392 11.0087 5.97178 10.7508C6.22964 10.4929 6.37451 10.1432 6.37451 9.77853V6.51291H4.39795C4.27398 6.51273 4.15127 6.48795 4.03695 6.44001C3.92262 6.39207 3.81895 6.32191 3.73193 6.23361Z" fill="white"/>
<path d="M7.4917 3.07508H9.00398C9.02091 3.07509 9.03747 3.07011 9.05158 3.06074C9.06568 3.05138 9.07671 3.03806 9.08327 3.02246C9.08984 3.00685 9.09164 2.98966 9.08847 2.97303C9.08529 2.9564 9.07728 2.94107 9.06543 2.92898L7.38105 1.21625C7.36908 1.2041 7.35377 1.19578 7.33706 1.19236C7.32034 1.18894 7.30299 1.19057 7.28721 1.19704C7.27143 1.20352 7.25793 1.21454 7.24843 1.22871C7.23894 1.24289 7.23387 1.25956 7.23389 1.27662V2.81727C7.23389 2.88564 7.26105 2.95122 7.3094 2.99957C7.35775 3.04792 7.42332 3.07508 7.4917 3.07508Z" fill="#2D3748"/>
<path d="M7.49164 3.76269C7.24152 3.76078 7.00218 3.66058 6.82531 3.48371C6.64844 3.30684 6.54824 3.0675 6.54632 2.81738V0.84082H4.22601C3.88425 0.841218 3.55661 0.977158 3.31495 1.21882C3.07329 1.46048 2.93735 1.78812 2.93695 2.12988V2.90332H3.84187C3.95738 2.90378 4.07165 2.92706 4.17813 2.97182C4.28461 3.01658 4.3812 3.08194 4.46234 3.16414L6.80757 5.5489C6.97119 5.71491 7.06255 5.93887 7.06173 6.17195V9.09082H8.20148C8.89994 9.09082 9.46798 8.51246 9.46798 7.80176V3.76269H7.49164Z" fill="black"/>
</svg>
