<svg  viewBox="0 0 21 18" fill="none" xmlns="http://www.w3.org/2000/svg">
<path d="M3.5624 2.71013H17.6249C17.7892 2.71006 17.9533 2.72048 18.1162 2.74133C18.061 2.35364 17.9278 1.98114 17.7247 1.6463C17.5216 1.31146 17.2529 1.02122 16.9346 0.793064C16.6163 0.564913 16.2551 0.40358 15.8728 0.318794C15.4904 0.234007 15.0949 0.227523 14.71 0.299732L3.14492 2.27419H3.13174C2.40579 2.41302 1.76023 2.82374 1.3269 3.42249C1.97975 2.95813 2.76125 2.7091 3.5624 2.71013Z" fill="currentColor"/>
<path d="M17.625 3.76682H3.5625C2.81683 3.76763 2.10193 4.06421 1.57466 4.59148C1.04739 5.11875 0.750814 5.83364 0.75 6.57931V15.0168C0.750814 15.7625 1.04739 16.4774 1.57466 17.0046C2.10193 17.5319 2.81683 17.8285 3.5625 17.8293H17.625C18.3707 17.8285 19.0856 17.5319 19.6128 17.0046C20.1401 16.4774 20.4367 15.7625 20.4375 15.0168V6.57931C20.4367 5.83364 20.1401 5.11875 19.6128 4.59148C19.0856 4.06421 18.3707 3.76763 17.625 3.76682ZM15.5376 12.2043C15.2595 12.2043 14.9876 12.1218 14.7563 11.9673C14.5251 11.8128 14.3448 11.5932 14.2384 11.3362C14.132 11.0793 14.1041 10.7965 14.1584 10.5237C14.2126 10.2509 14.3466 10.0004 14.5432 9.80369C14.7399 9.60703 14.9905 9.47309 15.2632 9.41883C15.536 9.36457 15.8188 9.39242 16.0757 9.49886C16.3327 9.60529 16.5523 9.78553 16.7068 10.0168C16.8614 10.248 16.9438 10.5199 16.9438 10.7981C16.9438 11.171 16.7957 11.5287 16.532 11.7924C16.2682 12.0562 15.9106 12.2043 15.5376 12.2043Z" fill="currentColor"/>
<path d="M0.771973 9.54336V5.17081C0.771973 4.21851 1.29932 2.62198 3.12964 2.27613C4.6831 1.98477 6.22119 1.98477 6.22119 1.98477C6.22119 1.98477 7.23193 2.6879 6.39697 2.6879C5.56201 2.6879 5.58398 3.76456 6.39697 3.76456C7.20996 3.76456 6.39697 4.79727 6.39697 4.79727L3.12305 8.51065L0.771973 9.54336Z" fill="currentColor"/>
</svg>
